<svg width="140" height="138" viewBox="0 0 140 138" fill="none" xmlns="http://www.w3.org/2000/svg">
<g clip-path="url(#clip0_159_60)">
<rect width="140" height="138" rx="69" fill="#1F75FE"/>
<path fill-rule="evenodd" clip-rule="evenodd" d="M98.8234 66.8541C98.8234 68.4302 98.6862 76.0481 93.745 83.4034C88.2548 91.4154 78.2352 97.3258 66.9803 97.3258C56.5489 97.1945 49.5489 91.9408 47.6274 90.496C45.9803 89.1825 35.2744 80.7765 35.2744 66.8541C35.2744 57.9227 39.8038 51.7495 41.3136 49.7794C42.4117 48.3346 51.6077 36.5136 66.9803 36.5136C75.7646 36.5136 81.9411 40.4539 84.2744 42.0301C85.7842 43.0808 95.6666 49.5167 98.1372 61.0749C98.4117 62.3884 98.5489 63.8331 98.5489 63.8331C98.5489 63.8331 98.8234 65.2779 98.8234 66.8541Z" fill="white"/>
<path fill-rule="evenodd" clip-rule="evenodd" d="M121.333 39.1405C121.745 39.0092 124.216 38.4838 125.039 39.6659C125.863 40.848 124.49 42.8181 124.216 43.2122C123.804 43.8689 123.255 44.2629 122.843 44.5256L119.412 46.8898L120.098 56.3466C120.235 57.5287 118.451 58.054 117.902 57.0033L114.471 50.3047L111.176 52.4062L109.941 56.0839C109.667 57.0033 108.157 57.1346 107.745 56.2152L105.961 52.4062L102.529 49.254C101.706 48.4659 102.392 47.1525 103.49 47.2838L107.745 47.6779L110.902 45.5764L105.549 40.1913C104.725 39.2718 105.686 37.9584 106.922 38.3524L115.98 42.1614L119.549 39.7972C119.961 39.5345 120.647 39.2718 121.333 39.1405ZM120.784 41.3733L116.941 44.0002C116.667 44.2629 116.118 44.2629 115.843 44.1316L109.804 41.5047L113.098 44.7883C113.647 45.3137 113.51 46.1017 112.961 46.4958L108.843 49.254C108.569 49.3853 108.294 49.5167 108.02 49.5167L105.686 49.254L107.745 51.2241L108.843 53.457L109.529 51.3555C109.667 51.0928 109.804 50.9615 109.941 50.8301L114.059 48.0719C114.608 47.6779 115.431 47.8092 115.843 48.4659L117.902 52.5376L117.49 46.3644C117.49 45.9704 117.627 45.5764 118.039 45.3137L121.882 42.6868C122.157 42.4241 122.569 42.0301 122.98 41.3733C123.392 40.848 123.667 40.3226 123.529 40.1913C123.392 39.9286 122.431 40.3226 121.882 40.4539C121.471 40.9793 121.059 41.242 120.784 41.3733Z" fill="white"/>
<path fill-rule="evenodd" clip-rule="evenodd" d="M98.9608 57.3973C98.9608 57.3973 96.6275 58.7107 91.1373 60.8122C74.5294 67.3794 53.6667 67.6421 53.6667 67.6421C49 67.6421 41.5883 67.7735 32.1177 65.8033C14.549 62.1257 6.86277 55.2958 5.21571 57.1346C2.1961 60.6809 16.0588 84.4541 38.4314 89.9706C38.4314 89.9706 70.8236 97.9826 100.608 61.0749C101.02 60.6809 105.412 55.1644 104.588 54.3764C104.314 53.9824 102.392 55.4271 98.9608 57.3973Z" fill="#1F75FE"/>
<path d="M53.3923 82.878C59.5688 82.6153 65.608 81.3019 70.9609 78.9377C76.7256 76.4422 81.5295 72.8959 85.0982 68.4302C85.3727 68.0362 85.6472 67.7735 85.5099 67.7735C85.5099 67.7735 85.3727 67.9048 85.0982 68.1675C81.804 71.4511 77.4119 74.2093 72.3335 76.1795C70.6864 76.8362 68.9021 77.3616 67.255 77.887C63.4119 78.9377 59.2942 79.5944 55.1766 79.8571C53.804 79.9885 53.3923 79.9885 51.7452 79.9885C50.0982 79.9885 49.6864 79.9885 48.3138 79.8571C40.4903 79.4631 32.9413 77.6243 26.9021 74.472C25.6668 73.8153 24.5688 73.1586 23.3335 72.3705C21.4119 71.0571 19.7648 69.7436 18.255 68.2988C17.9805 68.0362 17.8433 67.9048 17.8433 67.9048C17.8433 67.9048 18.255 68.4302 18.5295 68.8242C20.7256 71.4511 23.4707 73.9466 26.4903 75.9168C33.0786 80.2511 41.3138 82.7467 50.0982 83.0094C50.6472 82.878 52.8433 82.878 53.3923 82.878Z" fill="white"/>
<path d="M42.4117 65.9347C42.4117 65.8033 42.4117 65.672 42.4117 65.2779C42.4117 65.0153 42.4117 64.7526 42.4117 64.6212C41.5881 64.7526 40.7646 64.7526 39.9411 64.7526C39.9411 64.7526 37.6077 64.8839 35.1372 64.4899C32.5293 64.2272 26.9019 62.5197 20.3136 58.7107C20.1764 58.5794 20.0391 58.5794 19.9019 58.4481L20.3136 58.8421C21.4117 59.8928 23.196 61.3376 24.843 62.3884C28.9607 65.0153 33.4901 66.3287 38.294 66.7227C38.9803 66.8541 39.6666 66.8541 40.0783 66.8541C40.6273 66.8541 41.0391 66.8541 41.3136 66.9854C41.7254 66.9854 42.2744 66.9854 42.5489 67.1168C42.5489 66.46 42.5489 66.1974 42.4117 65.9347Z" fill="white"/>
<path d="M87.4312 58.9734C87.4312 58.8421 87.4312 58.8421 87.4312 58.3167C87.4312 58.054 87.4312 57.9227 87.4312 57.66C88.1175 57.7914 88.8038 57.7913 89.4901 57.7913C89.4901 57.7913 91.4116 57.7913 93.4705 57.5287C95.5293 57.266 100.333 55.8212 105.823 52.5376C105.961 52.4062 106.098 52.4062 106.098 52.2749L105.686 52.6689C104.725 53.5883 103.353 54.9018 101.843 55.6898C98.4116 57.9227 94.7058 59.2361 90.5881 59.4988C89.9018 59.4988 89.4901 59.6302 89.0783 59.6302C88.6665 59.6302 88.2548 59.6302 88.1175 59.7615C87.7058 59.7615 87.294 59.7615 87.1567 59.7615C87.294 59.4988 87.4312 59.1048 87.4312 58.9734Z" fill="white"/>
</g>
<defs>
<clipPath id="clip0_159_60">
<rect width="140" height="138" rx="69" fill="white"/>
</clipPath>
</defs>
</svg>
